RobotoSerifText-RegularWdth500.ufo
<glyph name="dollar" format="2">
  <advance width="462"/>
  <unicode hex="0024"/>
  <outline>
    <contour>
      <point x="207.41" y="789.4" type="line"/>
      <point x="207.41" y="678.4" type="line"/>
      <point x="208.55" y="663.8" type="line"/>
      <point x="208.55" y="42.6" type="line"/>
      <point x="207.41" y="33.6" type="line"/>
      <point x="207.41" y="-120.0" type="line"/>
      <point x="260.805" y="-120.0" type="line"/>
      <point x="260.805" y="34.6" type="line"/>
      <point x="259.6175" y="45.2" type="line"/>
      <point x="259.6175" y="664.6" type="line"/>
      <point x="260.805" y="676.0" type="line"/>
      <point x="260.805" y="789.4" type="line"/>
    </contour>
    <contour>
      <point x="235.3825" y="62.8" type="curve" smooth="yes"/>
      <point x="167.3125" y="62.8"/>
      <point x="107.57" y="93.6"/>
      <point x="78.355" y="148.2" type="curve"/>
      <point x="70.7125" y="134.4"/>
      <point x="92.235" y="99.0"/>
      <point x="117.16250000000001" y="93.4" type="curve"/>
      <point x="117.16250000000001" y="211.2" type="line"/>
      <point x="34.4825" y="211.2" type="line"/>
      <point x="34.4825" y="92.0" type="line"/>
      <point x="72.245" y="50.6"/>
      <point x="145.195" y="11.2"/>
      <point x="238.835" y="11.2" type="curve" smooth="yes"/>
      <point x="347.9225" y="11.2"/>
      <point x="429" y="76"/>
      <point x="428.875" y="205.4" type="curve" smooth="yes"/>
      <point x="429" y="323"/>
      <point x="341" y="370"/>
      <point x="256" y="398" type="curve" smooth="yes"/>
      <point x="187" y="421"/>
      <point x="121" y="441.0"/>
      <point x="121" y="531" type="curve" smooth="yes"/>
      <point x="121" y="606"/>
      <point x="164.8075" y="647.2"/>
      <point x="247.765" y="647.2" type="curve" smooth="yes"/>
      <point x="304.8625" y="647.2"/>
      <point x="349" y="619.0"/>
      <point x="373" y="582" type="curve"/>
      <point x="379" y="604"/>
      <point x="359" y="627.0"/>
      <point x="337" y="629" type="curve"/>
      <point x="337" y="528" type="line"/>
      <point x="415" y="528" type="line"/>
      <point x="415" y="636" type="line"/>
      <point x="388" y="665.0"/>
      <point x="322.8325" y="698.0"/>
      <point x="243.3825" y="698.0" type="curve" smooth="yes"/>
      <point x="128.815" y="698.0"/>
      <point x="52" y="634"/>
      <point x="52" y="524" type="curve" smooth="yes"/>
      <point x="52" y="401"/>
      <point x="137" y="365"/>
      <point x="218" y="337" type="curve" smooth="yes"/>
      <point x="290" y="312"/>
      <point x="355" y="293"/>
      <point x="355" y="191" type="curve" smooth="yes"/>
      <point x="355" y="98"/>
      <point x="311.22" y="62.8"/>
    </contour>
  </outline>
</glyph>
<glyph name="hyphen" format="2">
  <advance width="367"/>
  <unicode hex="002D"/>
  <outline>
    <contour>
      <point x="63.2175" y="333.4" type="line"/>
      <point x="63.2175" y="264.0" type="line"/>
      <point x="303.7275" y="264.0" type="line"/>
      <point x="303.7275" y="333.4" type="line"/>
    </contour>
  </outline>
</glyph>
<glyph name="slash" format="2">
  <advance width="352.08"/>
  <unicode hex="002F"/>
  <outline>
    <contour>
      <point x="295.09749999999997" y="750.0" type="line"/>
      <point x="-14.7875" y="-128.4" type="line"/>
      <point x="57.4825" y="-128.4" type="line"/>
      <point x="367.3675" y="750.0" type="line"/>
    </contour>
  </outline>
</glyph>
<glyph name="C" format="2">
  <advance width="589"/>
  <unicode hex="0043"/>
  <outline>
    <contour>
      <point x="316.73" y="664.4" type="curve" smooth="yes"/>
      <point x="410.05" y="664.4"/>
      <point x="462.3425" y="596.6"/>
      <point x="489.32" y="498.0" type="curve"/>
      <point x="548.12" y="498.0" type="line"/>
      <point x="548.12" y="710.0" type="line"/>
      <point x="495.7225" y="710.0" type="line"/>
      <point x="482.295" y="551.2" type="line"/>
      <point x="515.0275" y="555.2" type="line"/>
      <point x="487.4325" y="656.4"/>
      <point x="426.07" y="720.0"/>
      <point x="312.5" y="720.0" type="curve" smooth="yes"/>
      <point x="161.8825" y="720.0"/>
      <point x="37.48" y="569.0"/>
      <point x="37.48" y="355.0" type="curve" smooth="yes"/>
      <point x="37.48" y="138.0"/>
      <point x="156.1925" y="-10.0"/>
      <point x="321.475" y="-10.0" type="curve" smooth="yes"/>
      <point x="447.8775" y="-10.0"/>
      <point x="532.4300000000001" y="87.2"/>
      <point x="560.0025" y="226.2" type="curve"/>
      <point x="507.6975" y="247.8" type="line"/>
      <point x="484.9575" y="134.2"/>
      <point x="422.5" y="45.6"/>
      <point x="328.8975" y="45.6" type="curve" smooth="yes"/>
      <point x="208.005" y="45.6"/>
      <point x="133.3275" y="168.2"/>
      <point x="133.3275" y="355.0" type="curve" smooth="yes"/>
      <point x="133.3275" y="541.8"/>
      <point x="213.6025" y="664.4"/>
    </contour>
  </outline>
</glyph>
<glyph name="N" format="2">
  <advance width="656"/>
  <unicode hex="004E"/>
  <anchor x="337.5" y="741.0" name="top"/>
  <anchor x="337.5" y="0.0" name="bottom"/>
  <outline>
    <contour>
      <point x="35.195" y="0.0" type="line"/>
      <point x="251.61" y="0.0" type="line"/>
      <point x="251.61" y="43.6" type="line"/>
      <point x="240.2525" y="43.6" type="line" smooth="yes"/>
      <point x="206.08249999999998" y="43.6"/>
      <point x="167.48250000000002" y="51.6"/>
      <point x="167.48250000000002" y="58.6" type="curve" smooth="yes"/>
      <point x="167.48250000000002" y="678.4" type="line"/>
      <point x="155.63" y="676.4" type="line"/>
      <point x="459.075" y="0.0" type="line"/>
      <point x="550.2125" y="0.0" type="line"/>
      <point x="550.2125" y="625.4" type="line" smooth="yes"/>
      <point x="550.2125" y="654.4"/>
      <point x="578.2875" y="666.4"/>
      <point x="616.935" y="666.4" type="curve" smooth="yes"/>
      <point x="626.745" y="666.4" type="line"/>
      <point x="626.745" y="710.0" type="line"/>
      <point x="410.33000000000004" y="710.0" type="line"/>
      <point x="410.33000000000004" y="666.4" type="line"/>
      <point x="422.14" y="666.4" type="line" smooth="yes"/>
      <point x="455.81" y="666.4"/>
      <point x="494.4575" y="658.4"/>
      <point x="494.4575" y="651.4" type="curve" smooth="yes"/>
      <point x="494.4575" y="81.4" type="line"/>
      <point x="505.3575" y="83.0" type="line"/>
      <point x="231.26" y="710.0" type="line"/>
      <point x="35.195" y="710.0" type="line"/>
      <point x="35.195" y="666.4" type="line"/>
      <point x="44.1475" y="666.4" type="line" smooth="yes"/>
      <point x="82.7475" y="666.4"/>
      <point x="111.32249999999999" y="659.4"/>
      <point x="111.32249999999999" y="630.4" type="curve" smooth="yes"/>
      <point x="111.32249999999999" y="84.6" type="line" smooth="yes"/>
      <point x="111.32249999999999" y="55.6"/>
      <point x="82.7475" y="43.6"/>
      <point x="44.1475" y="43.6" type="curve" smooth="yes"/>
      <point x="35.195" y="43.6" type="line"/>
    </contour>
  </outline>
</glyph>
<glyph name="p" format="2">
  <advance width="546"/>
  <unicode hex="0070"/>
  <outline>
    <contour>
      <point x="30" y="-223" type="line"/>
      <point x="262" y="-223" type="line"/>
      <point x="262" y="-182" type="line"/>
      <point x="240" y="-182" type="line" smooth="yes"/>
      <point x="219" y="-182"/>
      <point x="181" y="-179"/>
      <point x="181" y="-172" type="curve" smooth="yes"/>
      <point x="181" y="370" type="line"/>
      <point x="173" y="380" type="line"/>
      <point x="173" y="508" type="line"/>
      <point x="30" y="508" type="line"/>
      <point x="30" y="466" type="line"/>
      <point x="38" y="464" type="line" smooth="yes"/>
      <point x="77" y="454"/>
      <point x="96" y="448"/>
      <point x="96" y="419" type="curve" smooth="yes"/>
      <point x="96" y="-146" type="line" smooth="yes"/>
      <point x="96" y="-175"/>
      <point x="69" y="-182"/>
      <point x="32" y="-182" type="curve"/>
      <point x="30" y="-182" type="line"/>
    </contour>
    <contour>
      <point x="314" y="-10" type="curve" smooth="yes"/>
      <point x="432" y="-10"/>
      <point x="510" y="99"/>
      <point x="510" y="257" type="curve" smooth="yes"/>
      <point x="510" y="414"/>
      <point x="435" y="518"/>
      <point x="319" y="518" type="curve" smooth="yes"/>
      <point x="252" y="518"/>
      <point x="209" y="478"/>
      <point x="167" y="399" type="curve"/>
      <point x="167" y="320" type="line"/>
      <point x="202" y="414"/>
      <point x="247" y="466"/>
      <point x="308" y="466" type="curve" smooth="yes"/>
      <point x="382" y="466"/>
      <point x="421" y="385"/>
      <point x="421" y="257" type="curve" smooth="yes"/>
      <point x="421" y="128"/>
      <point x="381" y="42"/>
      <point x="305" y="42" type="curve" smooth="yes"/>
      <point x="246" y="42"/>
      <point x="202" y="91"/>
      <point x="167" y="183" type="curve"/>
      <point x="167" y="101" type="line"/>
      <point x="207" y="26"/>
      <point x="248" y="-10"/>
    </contour>
  </outline>
</glyph>
<glyph name="q" format="2">
  <advance width="528"/>
  <unicode hex="0071"/>
  <outline>
    <contour>
      <point x="284.7875" y="-223.0" type="line"/>
      <point x="516.49" y="-223.0" type="line"/>
      <point x="516.49" y="-181.6" type="line"/>
      <point x="514.585" y="-181.6" type="line"/>
      <point x="477.4125" y="-181.6"/>
      <point x="450.9325" y="-174.6"/>
      <point x="450.9325" y="-145.6" type="curve" smooth="yes"/>
      <point x="450.9325" y="511.0" type="line"/>
      <point x="393.5675" y="511.0" type="line"/>
      <point x="372.8175" y="400.6" type="line"/>
      <point x="365.1775" y="386.2" type="line"/>
      <point x="365.1775" y="-171.6" type="line" smooth="yes"/>
      <point x="365.1775" y="-178.6"/>
      <point x="327.865" y="-181.6"/>
      <point x="306.65" y="-181.6" type="curve" smooth="yes"/>
      <point x="284.7875" y="-181.6" type="line"/>
    </contour>
    <contour>
      <point x="228.5775" y="-10.0" type="curve" smooth="yes"/>
      <point x="298.4075" y="-10.0"/>
      <point x="339.17" y="29.4"/>
      <point x="381.78999999999996" y="108.6" type="curve"/>
      <point x="381.78999999999996" y="186.8" type="line"/>
      <point x="344.84000000000003" y="94.6"/>
      <point x="301.3325" y="41.6"/>
      <point x="239.3725" y="41.6" type="curve" smooth="yes"/>
      <point x="166.5525" y="41.6"/>
      <point x="125.9025" y="123.2"/>
      <point x="125.9025" y="250.0" type="curve" smooth="yes"/>
      <point x="125.9025" y="380.8"/>
      <point x="166.60000000000002" y="466.4"/>
      <point x="242.2525" y="466.4" type="curve" smooth="yes"/>
      <point x="302.2825" y="466.4"/>
      <point x="346.0525" y="418.8"/>
      <point x="381.78999999999996" y="325.8" type="curve"/>
      <point x="381.78999999999996" y="409.2" type="line"/>
      <point x="343.43" y="483.6"/>
      <point x="300.9075" y="518.0"/>
      <point x="233.72" y="518.0" type="curve" smooth="yes"/>
      <point x="116.195" y="518.0"/>
      <point x="36.195" y="408.8"/>
      <point x="36.195" y="250.0" type="curve" smooth="yes"/>
      <point x="36.195" y="93.8"/>
      <point x="113.22" y="-10.0"/>
    </contour>
  </outline>
</glyph>
<glyph name="sterling" format="2">
  <advance width="462.0"/>
  <unicode hex="00A3"/>
  <outline>
    <contour>
      <point x="32.3375" y="362.4" type="line"/>
      <point x="32.3375" y="313.2" type="line"/>
      <point x="347.495" y="313.2" type="line"/>
      <point x="347.495" y="362.4" type="line"/>
    </contour>
    <contour>
      <point x="24.1925" y="-10.0" type="line"/>
      <point x="148.8975" y="25.4"/>
      <point x="213.2975" y="111.4"/>
      <point x="213.2975" y="232.2" type="curve" smooth="yes"/>
      <point x="213.2975" y="345.6"/>
      <point x="159.03" y="410.2"/>
      <point x="159.03" y="523.2" type="curve" smooth="yes"/>
      <point x="159.03" y="614.4"/>
      <point x="200.5375" y="664.0"/>
      <point x="260.7125" y="664.0" type="curve" smooth="yes"/>
      <point x="309.6975" y="664.0"/>
      <point x="340.2025" y="637.2"/>
      <point x="361.9675" y="609.6" type="curve"/>
      <point x="363.39" y="627.6"/>
      <point x="354.72249999999997" y="649.8"/>
      <point x="331.7975" y="654.4" type="curve"/>
      <point x="331.7975" y="549.6" type="line"/>
      <point x="410.6625" y="549.6" type="line"/>
      <point x="410.6625" y="661.8" type="line"/>
      <point x="388.8525" y="686.4"/>
      <point x="338.4" y="718.0"/>
      <point x="257.71500000000003" y="718.0" type="curve" smooth="yes"/>
      <point x="145.795" y="718.0"/>
      <point x="70.58" y="639.8"/>
      <point x="70.58" y="519.2" type="curve" smooth="yes"/>
      <point x="70.58" y="405.2"/>
      <point x="138.435" y="330.6"/>
      <point x="138.435" y="220.2" type="curve" smooth="yes"/>
      <point x="138.435" y="133.4"/>
      <point x="105.435" y="85.4"/>
      <point x="24.1925" y="52.0" type="curve"/>
    </contour>
    <contour>
      <point x="313.405" y="-8.4" type="curve" smooth="yes"/>
      <point x="390.4275" y="-8.4"/>
      <point x="432.2125" y="70.2"/>
      <point x="447.0675" y="164.4" type="curve"/>
      <point x="397.505" y="181.6" type="line"/>
      <point x="381.4575" y="106.6"/>
      <point x="359.265" y="71.6"/>
      <point x="317.645" y="71.6" type="curve" smooth="yes"/>
      <point x="271.3825" y="71.6"/>
      <point x="226.115" y="101.8"/>
      <point x="166.445" y="168.6" type="curve"/>
      <point x="151.32999999999998" y="160.0"/>
      <point x="137.2875" y="136.6"/>
      <point x="135.1675" y="121.6" type="curve"/>
      <point x="215.025" y="37.2"/>
      <point x="250.0" y="-8.4"/>
    </contour>
  </outline>
</glyph>
<glyph name="currency" format="2">
  <advance width="462.0"/>
  <unicode hex="00A4"/>
  <outline>
    <contour>
      <point x="331.345" y="373.6" type="curve" smooth="yes"/>
      <point x="331.345" y="288.8173913044"/>
      <point x="291.745" y="233.2"/>
      <point x="231.0" y="233.2" type="curve" smooth="yes"/>
      <point x="170.16" y="233.2"/>
      <point x="130.655" y="289.8028985508"/>
      <point x="130.655" y="373.6" type="curve" smooth="yes"/>
      <point x="130.655" y="458.3913669064"/>
      <point x="170.16" y="515.0"/>
      <point x="231.0" y="515.0" type="curve" smooth="yes"/>
      <point x="291.745" y="515.0"/>
      <point x="331.345" y="458.3913669064"/>
    </contour>
    <contour>
      <point x="58.765" y="373.6" type="curve" smooth="yes"/>
      <point x="58.765" y="255.3634615384"/>
      <point x="136.05" y="170.2"/>
      <point x="231.0" y="170.2" type="curve" smooth="yes"/>
      <point x="326.045" y="170.2"/>
      <point x="403.235" y="255.3634615384"/>
      <point x="403.235" y="373.6" type="curve" smooth="yes"/>
      <point x="403.235" y="492.8325358852"/>
      <point x="326.045" y="578.0"/>
      <point x="231.0" y="578.0" type="curve" smooth="yes"/>
      <point x="136.05" y="578.0"/>
      <point x="58.765" y="492.8325358852"/>
    </contour>
    <contour>
      <point x="16.9075" y="586.4" type="line"/>
      <point x="102.47749999999999" y="483.4" type="line"/>
      <point x="154.04000000000002" y="522.6" type="line"/>
      <point x="62.5175" y="632.6" type="line"/>
    </contour>
    <contour>
      <point x="445.0925" y="586.4" type="line"/>
      <point x="399.4825" y="632.6" type="line"/>
      <point x="307.96" y="522.6" type="line"/>
      <point x="359.52250000000004" y="483.4" type="line"/>
    </contour>
    <contour>
      <point x="16.9075" y="160.8" type="line"/>
      <point x="62.5175" y="114.6" type="line"/>
      <point x="154.04000000000002" y="224.6" type="line"/>
      <point x="102.47749999999999" y="263.8" type="line"/>
    </contour>
    <contour>
      <point x="445.0925" y="160.8" type="line"/>
      <point x="359.52250000000004" y="263.8" type="line"/>
      <point x="307.96" y="224.6" type="line"/>
      <point x="399.4825" y="114.6" type="line"/>
    </contour>
  </outline>
</glyph>
<glyph name="paragraph" format="2">
  <advance width="512.135"/>
  <unicode hex="00B6"/>
  <outline>
    <contour>
      <point x="484.18" y="710.0" type="line"/>
      <point x="484.18" y="666.4" type="line"/>
      <point x="475.2275" y="666.4" type="line" smooth="yes"/>
      <point x="436.6275" y="666.4"/>
      <point x="408.505" y="659.4"/>
      <point x="408.505" y="630.4" type="curve" smooth="yes"/>
      <point x="408.505" y="0.0" type="line"/>
      <point x="349.5425" y="0.0" type="line"/>
      <point x="349.5425" y="710.0" type="line"/>
    </contour>
    <contour>
      <point x="266.77" y="0.0" type="line"/>
      <point x="207.8075" y="0.0" type="line"/>
      <point x="207.8075" y="347.0" type="line"/>
      <point x="203.76" y="347.0" type="line" smooth="yes"/>
      <point x="99.36" y="347.0"/>
      <point x="34.6725" y="424.6"/>
      <point x="34.6725" y="534.0" type="curve" smooth="yes"/>
      <point x="34.6725" y="641.3949152542373"/>
      <point x="96.3125" y="710.0"/>
      <point x="199.76" y="710.0" type="curve" smooth="yes"/>
      <point x="266.77" y="710.0" type="line"/>
    </contour>
    <contour>
      <point x="373.375" y="710.0" type="line"/>
      <point x="373.375" y="666.4" type="line"/>
      <point x="237.375" y="666.4" type="line"/>
      <point x="237.375" y="710.0" type="line"/>
    </contour>
  </outline>
</glyph>
<glyph name="divide" format="2">
  <advance width="462"/>
  <unicode hex="00F7"/>
  <outline>
    <contour>
      <point x="286.61" y="175.0" type="curve" smooth="yes"/>
      <point x="286.61" y="209.0"/>
      <point x="263.1125" y="231.4"/>
      <point x="231.0" y="231.4" type="curve" smooth="yes"/>
      <point x="197.9825" y="231.4"/>
      <point x="175.39" y="209.0"/>
      <point x="175.39" y="175.0" type="curve" smooth="yes"/>
      <point x="175.39" y="141.8"/>
      <point x="197.9825" y="119.4"/>
      <point x="231.0" y="119.4" type="curve" smooth="yes"/>
      <point x="263.1125" y="119.4"/>
      <point x="286.61" y="141.8"/>
    </contour>
    <contour>
      <point x="286.61" y="506.6" type="curve" smooth="yes"/>
      <point x="286.61" y="540.6"/>
      <point x="263.1125" y="563.0"/>
      <point x="231.0" y="563.0" type="curve" smooth="yes"/>
      <point x="197.9825" y="563.0"/>
      <point x="175.39" y="540.6"/>
      <point x="175.39" y="506.6" type="curve" smooth="yes"/>
      <point x="175.39" y="474.2"/>
      <point x="197.9825" y="451.0"/>
      <point x="231.0" y="451.0" type="curve" smooth="yes"/>
      <point x="263.1125" y="451.0"/>
      <point x="286.61" y="474.2"/>
    </contour>
    <component base="minus" xOffset="-47.86"/>
  </outline>
</glyph>
<glyph name="dotlessi" format="2">
  <advance width="265.21"/>
  <unicode hex="0131"/>
  <anchor x="140.19" y="529.2" name="top"/>
  <outline>
    <contour>
      <point x="181.5075" y="508.0" type="line"/>
      <point x="29.7425" y="508.0" type="line"/>
      <point x="29.7425" y="466.2" type="line"/>
      <point x="38.457499999999996" y="464.2" type="line" smooth="yes"/>
      <point x="78.035" y="455.0"/>
      <point x="95.7525" y="448.2"/>
      <point x="95.7525" y="419.2" type="curve" smooth="yes"/>
      <point x="95.7525" y="77.4" type="line" smooth="yes"/>
      <point x="95.7525" y="48.4"/>
      <point x="68.3675" y="41.4"/>
      <point x="31.195" y="41.4" type="curve" smooth="yes"/>
      <point x="30.195" y="41.4" type="line"/>
      <point x="30.195" y="0.0" type="line"/>
      <point x="246.6125" y="0.0" type="line"/>
      <point x="246.6125" y="41.4" type="line"/>
      <point x="246.065" y="41.4" type="line" smooth="yes"/>
      <point x="208.94" y="41.4"/>
      <point x="181.5075" y="48.4"/>
      <point x="181.5075" y="77.4" type="curve" smooth="yes"/>
    </contour>
  </outline>
</glyph>
<glyph name="Eng" format="2">
  <advance width="656.105"/>
  <unicode hex="014A"/>
  <outline>
    <contour>
      <point x="494.0775" y="25.6" type="line"/>
      <point x="494.0775" y="-13.399999999999999" type="line" smooth="yes"/>
      <point x="494.0775" y="-115.2"/>
      <point x="454.2175" y="-154.8"/>
      <point x="401.2375" y="-154.8" type="curve" smooth="yes"/>
      <point x="370.62" y="-154.8"/>
      <point x="341.025" y="-146.6"/>
      <point x="320.19" y="-139.4" type="curve"/>
      <point x="320.19" y="-197.8" type="line"/>
      <point x="337.545" y="-205.0"/>
      <point x="374.07" y="-212.0"/>
      <point x="404.1175" y="-212.0" type="curve" smooth="yes"/>
      <point x="475.5875" y="-212.0"/>
      <point x="550.2125" y="-159.8"/>
      <point x="550.2125" y="-13.399999999999999" type="curve" smooth="yes"/>
      <point x="550.2125" y="625.4" type="line" smooth="yes"/>
      <point x="550.2125" y="654.4"/>
      <point x="578.2875" y="666.4"/>
      <point x="616.935" y="666.4" type="curve" smooth="yes"/>
      <point x="626.745" y="666.4" type="line"/>
      <point x="626.745" y="710.0" type="line"/>
      <point x="410.33000000000004" y="710.0" type="line"/>
      <point x="410.33000000000004" y="666.4" type="line"/>
      <point x="422.14" y="666.4" type="line" smooth="yes"/>
      <point x="455.81" y="666.4"/>
      <point x="494.4575" y="658.4"/>
      <point x="494.4575" y="651.4" type="curve" smooth="yes"/>
      <point x="494.4575" y="77.4" type="line"/>
      <point x="523.6675" y="91.6" type="line"/>
      <point x="231.5925" y="710.0" type="line"/>
      <point x="35.195" y="710.0" type="line"/>
      <point x="35.195" y="666.4" type="line"/>
      <point x="44.1475" y="666.4" type="line" smooth="yes"/>
      <point x="82.7475" y="666.4"/>
      <point x="111.32249999999999" y="659.4"/>
      <point x="111.32249999999999" y="630.4" type="curve" smooth="yes"/>
      <point x="111.32249999999999" y="84.6" type="line" smooth="yes"/>
      <point x="111.32249999999999" y="55.6"/>
      <point x="82.7475" y="43.6"/>
      <point x="44.1475" y="43.6" type="curve" smooth="yes"/>
      <point x="35.195" y="43.6" type="line"/>
      <point x="35.195" y="0.0" type="line"/>
      <point x="251.61" y="0.0" type="line"/>
      <point x="251.61" y="43.6" type="line"/>
      <point x="240.2525" y="43.6" type="line" smooth="yes"/>
      <point x="206.08249999999998" y="43.6"/>
      <point x="167.48250000000002" y="51.6"/>
      <point x="167.48250000000002" y="58.6" type="curve" smooth="yes"/>
      <point x="167.48250000000002" y="680.4" type="line"/>
      <point x="154.5575" y="676.4" type="line"/>
      <point x="526.89" y="-73.4" type="line"/>
    </contour>
  </outline>
</glyph>
<glyph name="Uogonek" format="2">
  <advance width="660.965"/>
  <unicode hex="0172"/>
  <outline>
    <contour>
      <point x="386.8125" y="-235.4" type="curve" smooth="yes"/>
      <point x="431.7825" y="-235.4"/>
      <point x="455.8025" y="-215.8"/>
      <point x="477.205" y="-188.0" type="curve"/>
      <point x="451.685" y="-156.8" type="line"/>
      <point x="441.4225" y="-171.0"/>
      <point x="426.51750000000004" y="-187.8"/>
      <point x="408.185" y="-187.8" type="curve" smooth="yes"/>
      <point x="389.185" y="-187.8"/>
      <point x="375.4225" y="-171.4"/>
      <point x="375.4225" y="-136.8" type="curve" smooth="yes"/>
      <point x="375.4225" y="-60.8"/>
      <point x="457.8675" y="9.400000000000006"/>
      <point x="490.97749999999996" y="55.4" type="curve" smooth="yes"/>
      <point x="529.1424999999999" y="100.2"/>
      <point x="551.19" y="171.0"/>
      <point x="551.19" y="271.0" type="curve" smooth="yes"/>
      <point x="551.19" y="620.4" type="line" smooth="yes"/>
      <point x="551.19" y="654.4"/>
      <point x="579.7175" y="666.4"/>
      <point x="617.865" y="666.4" type="curve" smooth="yes"/>
      <point x="627.27" y="666.4" type="line"/>
      <point x="627.27" y="710.0" type="line"/>
      <point x="419.4025" y="710.0" type="line"/>
      <point x="419.4025" y="666.4" type="line"/>
      <point x="426.4025" y="666.4" type="line" smooth="yes"/>
      <point x="456.47749999999996" y="666.4"/>
      <point x="494.98249999999996" y="658.4"/>
      <point x="494.98249999999996" y="644.4" type="curve" smooth="yes"/>
      <point x="494.98249999999996" y="271.0" type="line" smooth="yes"/>
      <point x="494.98249999999996" y="106.6"/>
      <point x="433.095" y="52.0"/>
      <point x="348.01750000000004" y="52.0" type="curve" smooth="yes"/>
      <point x="260.46500000000003" y="52.0"/>
      <point x="199.385" y="106.0"/>
      <point x="199.385" y="271.0" type="curve" smooth="yes"/>
      <point x="199.385" y="656.4" type="line" smooth="yes"/>
      <point x="199.385" y="663.4"/>
      <point x="237.9375" y="666.4"/>
      <point x="267.46500000000003" y="666.4" type="curve" smooth="yes"/>
      <point x="274.96500000000003" y="666.4" type="line"/>
      <point x="274.96500000000003" y="710.0" type="line"/>
      <point x="33.695" y="710.0" type="line"/>
      <point x="33.695" y="666.4" type="line"/>
      <point x="42.6475" y="666.4" type="line" smooth="yes"/>
      <point x="81.2475" y="666.4"/>
      <point x="109.32249999999999" y="659.4"/>
      <point x="109.32249999999999" y="630.4" type="curve" smooth="yes"/>
      <point x="109.32249999999999" y="271.0" type="line" smooth="yes"/>
      <point x="109.32249999999999" y="70.4"/>
      <point x="203.7975" y="-10.0"/>
      <point x="334.695" y="-10.0" type="curve" smooth="yes"/>
      <point x="373.315" y="-10.0"/>
      <point x="409.03" y="-2.5999999999999996"/>
      <point x="439.34" y="15.0" type="curve"/>
      <point x="439.95" y="40.0" type="line"/>
      <point x="357.0325" y="-23.8"/>
      <point x="294.3675" y="-75.8"/>
      <point x="294.3675" y="-144.0" type="curve" smooth="yes"/>
      <point x="294.3675" y="-201.2"/>
      <point x="332.865" y="-235.4"/>
    </contour>
  </outline>
</glyph>
<glyph name="Oogonek" format="2">
  <advance width="656.615"/>
  <unicode hex="01EA"/>
  <outline>
    <contour>
      <point x="328.3075" y="44.0" type="curve" smooth="yes"/>
      <point x="214.79250000000002" y="44.0"/>
      <point x="133.3275" y="164.4"/>
      <point x="133.3275" y="355.0" type="curve" smooth="yes"/>
      <point x="133.3275" y="545.6"/>
      <point x="213.8875" y="666.0"/>
      <point x="328.3075" y="666.0" type="curve" smooth="yes"/>
      <point x="441.775" y="666.0"/>
      <point x="523.6925" y="545.6"/>
      <point x="523.6925" y="355.0" type="curve" smooth="yes"/>
      <point x="523.6925" y="164.4"/>
      <point x="441.775" y="44.0"/>
    </contour>
    <contour>
      <point x="433.2775" y="29.0" type="line"/>
      <point x="331.645" y="-21.2"/>
      <point x="269.5775" y="-73.8"/>
      <point x="269.5775" y="-144.0" type="curve" smooth="yes"/>
      <point x="269.5775" y="-201.2"/>
      <point x="308.075" y="-235.4"/>
      <point x="362.0225" y="-235.4" type="curve" smooth="yes"/>
      <point x="406.9925" y="-235.4"/>
      <point x="431.06" y="-215.8"/>
      <point x="452.415" y="-188.0" type="curve"/>
      <point x="426.9425" y="-156.8" type="line"/>
      <point x="416.6325" y="-171.0"/>
      <point x="401.7275" y="-187.8"/>
      <point x="383.4425" y="-187.8" type="curve" smooth="yes"/>
      <point x="364.4425" y="-187.8"/>
      <point x="350.6325" y="-171.4"/>
      <point x="350.6325" y="-136.8" type="curve" smooth="yes"/>
      <point x="350.6325" y="-47.2"/>
      <point x="456.4316666666825" y="-4.399999999999999"/>
      <point x="523.7025" y="69.0" type="curve" smooth="yes"/>
      <point x="586.015" y="136.2"/>
      <point x="619.54" y="237.4"/>
      <point x="619.54" y="355.0" type="curve" smooth="yes"/>
      <point x="619.54" y="572.0"/>
      <point x="492.89750000000004" y="720.0"/>
      <point x="328.3075" y="720.0" type="curve" smooth="yes"/>
      <point x="163.67000000000002" y="720.0"/>
      <point x="37.48" y="572.0"/>
      <point x="37.48" y="355.0" type="curve" smooth="yes"/>
      <point x="37.48" y="139.0"/>
      <point x="163.67000000000002" y="-10.0"/>
      <point x="328.3075" y="-10.0" type="curve" smooth="yes"/>
      <point x="361.925" y="-10.0"/>
      <point x="394.4" y="-4.2"/>
      <point x="423.9225" y="7.4" type="curve"/>
    </contour>
  </outline>
</glyph>
<glyph name="perthousand" format="2">
  <advance width="949.0"/>
  <unicode hex="2030"/>
  <outline>
    <contour>
      <point x="158.81" y="425.6" type="curve" smooth="yes"/>
      <point x="118.8275" y="425.6"/>
      <point x="93.895" y="477.0"/>
      <point x="93.895" y="551.0" type="curve" smooth="yes"/>
      <point x="93.895" y="625.0"/>
      <point x="118.8275" y="676.4"/>
      <point x="158.81" y="676.4" type="curve" smooth="yes"/>
      <point x="199.1975" y="676.4"/>
      <point x="224.13" y="625.0"/>
      <point x="224.13" y="551.0" type="curve" smooth="yes"/>
      <point x="224.13" y="477.0"/>
      <point x="199.1975" y="425.6"/>
    </contour>
    <contour>
      <point x="158.81" y="382.0" type="curve" smooth="yes"/>
      <point x="237.9025" y="382.0"/>
      <point x="293.71000000000004" y="454.0"/>
      <point x="293.71000000000004" y="551.0" type="curve" smooth="yes"/>
      <point x="293.71000000000004" y="649.0"/>
      <point x="237.9025" y="720.0"/>
      <point x="158.81" y="720.0" type="curve" smooth="yes"/>
      <point x="80.1225" y="720.0"/>
      <point x="24.314999999999998" y="648.0"/>
      <point x="24.314999999999998" y="551.0" type="curve" smooth="yes"/>
      <point x="24.314999999999998" y="453.0"/>
      <point x="80.1225" y="382.0"/>
    </contour>
    <contour>
      <point x="109.71000000000001" y="0.0" type="line"/>
      <point x="613.05" y="710.0" type="line"/>
      <point x="547.155" y="710.0" type="line"/>
      <point x="43.815" y="0.0" type="line"/>
    </contour>
    <contour>
      <point x="482.3125" y="33.6" type="curve" smooth="yes"/>
      <point x="441.925" y="33.6"/>
      <point x="416.9925" y="85.0"/>
      <point x="416.9925" y="159.0" type="curve" smooth="yes"/>
      <point x="416.9925" y="233.0"/>
      <point x="441.925" y="284.4"/>
      <point x="482.3125" y="284.4" type="curve" smooth="yes"/>
      <point x="522.7475000000001" y="284.4"/>
      <point x="547.6324999999999" y="233.0"/>
      <point x="547.6324999999999" y="159.0" type="curve" smooth="yes"/>
      <point x="547.6324999999999" y="85.0"/>
      <point x="522.7475000000001" y="33.6"/>
    </contour>
    <contour>
      <point x="482.3125" y="-10.0" type="curve" smooth="yes"/>
      <point x="561.0" y="-10.0"/>
      <point x="617.26" y="62.0"/>
      <point x="617.26" y="159.0" type="curve" smooth="yes"/>
      <point x="617.26" y="257.0"/>
      <point x="561.0" y="328.0"/>
      <point x="482.3125" y="328.0" type="curve" smooth="yes"/>
      <point x="403.625" y="328.0"/>
      <point x="347.365" y="256.0"/>
      <point x="347.365" y="159.0" type="curve" smooth="yes"/>
      <point x="347.365" y="61.0"/>
      <point x="403.625" y="-10.0"/>
    </contour>
    <contour>
      <point x="789.7375" y="33.6" type="curve" smooth="yes"/>
      <point x="749.35" y="33.6"/>
      <point x="724.4175" y="85.0"/>
      <point x="724.4175" y="159.0" type="curve" smooth="yes"/>
      <point x="724.4175" y="233.0"/>
      <point x="749.35" y="284.4"/>
      <point x="789.7375" y="284.4" type="curve" smooth="yes"/>
      <point x="830.125" y="284.4"/>
      <point x="855.0575" y="233.0"/>
      <point x="855.0575" y="159.0" type="curve" smooth="yes"/>
      <point x="855.0575" y="85.0"/>
      <point x="830.125" y="33.6"/>
    </contour>
    <contour>
      <point x="789.7375" y="-10.0" type="curve" smooth="yes"/>
      <point x="868.425" y="-10.0"/>
      <point x="924.685" y="62.0"/>
      <point x="924.685" y="159.0" type="curve" smooth="yes"/>
      <point x="924.685" y="257.0"/>
      <point x="868.425" y="328.0"/>
      <point x="789.7375" y="328.0" type="curve" smooth="yes"/>
      <point x="711.05" y="328.0"/>
      <point x="654.79" y="256.0"/>
      <point x="654.79" y="159.0" type="curve" smooth="yes"/>
      <point x="654.79" y="61.0"/>
      <point x="711.05" y="-10.0"/>
    </contour>
  </outline>
</glyph>
<glyph name="minute" format="2">
  <advance width="199.3775"/>
  <unicode hex="2032"/>
  <outline>
    <contour>
      <point x="163.945" y="710.0" type="line"/>
      <point x="156.16" y="620.0"/>
      <point x="131.78" y="584.8"/>
      <point x="118.5425" y="471.2" type="curve"/>
      <point x="70.865" y="471.2" type="line"/>
      <point x="85.60249999999999" y="610.4"/>
      <point x="73.08" y="647.8"/>
      <point x="81.055" y="710.0" type="curve"/>
    </contour>
  </outline>
</glyph>
<glyph name="peso" format="2">
  <advance width="462.0"/>
  <unicode hex="20B1"/>
  <outline>
    <contour>
      <point x="20.4075" y="0.0" type="line"/>
      <point x="234.5" y="0.0" type="line"/>
      <point x="234.5" y="43.6" type="line"/>
      <point x="217.2825" y="43.6" type="line" smooth="yes"/>
      <point x="193.305" y="43.6"/>
      <point x="164.7525" y="46.6"/>
      <point x="164.7525" y="53.6" type="curve" smooth="yes"/>
      <point x="164.7525" y="251.4" type="line"/>
      <point x="191.09" y="251.4" type="line" smooth="yes"/>
      <point x="321.0625" y="251.4"/>
      <point x="399.135" y="346.8"/>
      <point x="399.135" y="484.2" type="curve" smooth="yes"/>
      <point x="399.135" y="621.6"/>
      <point x="325.3314112903425" y="710.0"/>
      <point x="196.135" y="710.0" type="curve" smooth="yes"/>
      <point x="20.4075" y="710.0" type="line"/>
      <point x="20.4075" y="666.4" type="line"/>
      <point x="29.312499999999996" y="666.4" type="line" smooth="yes"/>
      <point x="58.088043478260246" y="666.4"/>
      <point x="79.77250000000001" y="659.4"/>
      <point x="79.77250000000001" y="630.4" type="curve" smooth="yes"/>
      <point x="79.77250000000001" y="79.6" type="line" smooth="yes"/>
      <point x="79.77250000000001" y="50.6"/>
      <point x="58.088043478260246" y="43.6"/>
      <point x="29.312499999999996" y="43.6" type="curve" smooth="yes"/>
      <point x="20.4075" y="43.6" type="line"/>
    </contour>
    <contour>
      <point x="194.23250000000002" y="658.4" type="line" smooth="yes"/>
      <point x="278.27" y="658.4"/>
      <point x="318.68" y="593.2"/>
      <point x="318.68" y="483.2" type="curve" smooth="yes"/>
      <point x="318.68" y="373.8"/>
      <point x="278.27" y="301.4"/>
      <point x="190.66" y="301.4" type="curve" smooth="yes"/>
      <point x="164.7525" y="301.4" type="line"/>
      <point x="164.7525" y="658.4" type="line"/>
    </contour>
    <contour>
      <point x="20.4075" y="504.6" type="line"/>
      <point x="20.4075" y="457.0" type="line"/>
      <point x="112.845" y="457.0" type="line"/>
      <point x="134.5375" y="457.0" type="line"/>
      <point x="350.9325" y="457.0" type="line"/>
      <point x="366.31" y="457.0" type="line"/>
      <point x="462.0" y="457.0" type="line"/>
      <point x="462.0" y="504.6" type="line"/>
      <point x="375.9525" y="504.6" type="line"/>
      <point x="347.5475" y="504.6" type="line"/>
      <point x="130.565" y="504.6" type="line"/>
      <point x="115.11000000000001" y="504.6" type="line"/>
    </contour>
  </outline>
</glyph>
<glyph name="uni20B8" format="2">
  <advance width="462.0"/>
  <unicode hex="20B8"/>
  <outline>
    <contour>
      <point x="187.8225" y="79.6" type="line" smooth="yes"/>
      <point x="187.8225" y="50.6"/>
      <point x="159.79500000000002" y="43.6"/>
      <point x="121.19500000000001" y="43.6" type="curve" smooth="yes"/>
      <point x="107.885" y="43.6" type="line"/>
      <point x="107.885" y="0.0" type="line"/>
      <point x="354.5675" y="0.0" type="line"/>
      <point x="354.5675" y="43.6" type="line"/>
      <point x="341.71000000000004" y="43.6" type="line" smooth="yes"/>
      <point x="303.015" y="43.6"/>
      <point x="275.0825" y="50.6"/>
      <point x="275.0825" y="79.6" type="curve" smooth="yes"/>
      <point x="275.0825" y="514.2" type="line"/>
      <point x="298.54" y="514.2" type="line" smooth="yes"/>
      <point x="356.765" y="514.2"/>
      <point x="386.2425" y="507.2"/>
      <point x="388.195" y="471.2" type="curve" smooth="yes"/>
      <point x="395.4575" y="373.2" type="line"/>
      <point x="444.95" y="373.2" type="line"/>
      <point x="444.95" y="563.4" type="line"/>
      <point x="17.049999999999997" y="563.4" type="line"/>
      <point x="17.049999999999997" y="373.2" type="line"/>
      <point x="66.5425" y="373.2" type="line"/>
      <point x="73.805" y="471.2" type="line" smooth="yes"/>
      <point x="75.7575" y="507.2"/>
      <point x="105.1875" y="514.2"/>
      <point x="163.46" y="514.2" type="curve" smooth="yes"/>
      <point x="187.8225" y="514.2" type="line"/>
    </contour>
    <contour>
      <point x="17.049999999999997" y="710.0" type="line"/>
      <point x="17.049999999999997" y="662.4" type="line"/>
      <point x="444.95" y="662.4" type="line"/>
      <point x="444.95" y="710.0" type="line"/>
    </contour>
  </outline>
</glyph>
<glyph name="servicemark" format="2">
  <advance width="717.9625"/>
  <unicode hex="2120"/>
  <outline>
    <contour>
      <point x="316.805" y="395.0" type="line"/>
      <point x="415.7125" y="395.0" type="line"/>
      <point x="415.7125" y="427.8" type="line"/>
      <point x="414.1175" y="427.8" type="line" smooth="yes"/>
      <point x="405.6175" y="427.8"/>
      <point x="389.3775" y="430.8"/>
      <point x="389.3775" y="432.8" type="curve" smooth="yes"/>
      <point x="389.3775" y="702.0" type="line"/>
      <point x="383.9975" y="701.0" type="line"/>
      <point x="462.38" y="394.0" type="line"/>
      <point x="506.11" y="394.0" type="line"/>
      <point x="586.635" y="701.0" type="line"/>
      <point x="580.3025" y="701.0" type="line"/>
      <point x="580.3025" y="432.8" type="line" smooth="yes"/>
      <point x="580.3025" y="430.8"/>
      <point x="565.9675" y="427.8"/>
      <point x="556.5625" y="427.8" type="curve" smooth="yes"/>
      <point x="554.015" y="427.8" type="line"/>
      <point x="554.015" y="395.0" type="line"/>
      <point x="670.4350000000001" y="395.0" type="line"/>
      <point x="670.4350000000001" y="427.8" type="line"/>
      <point x="664.72" y="427.8" type="line" smooth="yes"/>
      <point x="647.48" y="427.8"/>
      <point x="635.55" y="431.8"/>
      <point x="635.55" y="444.8" type="curve" smooth="yes"/>
      <point x="635.55" y="661.2" type="line" smooth="yes"/>
      <point x="635.55" y="675.2"/>
      <point x="647.48" y="677.2"/>
      <point x="664.72" y="677.2" type="curve" smooth="yes"/>
      <point x="670.4350000000001" y="677.2" type="line"/>
      <point x="670.4350000000001" y="710.0" type="line"/>
      <point x="552.0675" y="710.0" type="line"/>
      <point x="482.805" y="435.0" type="line"/>
      <point x="500.5125" y="434.0" type="line"/>
      <point x="437.5775" y="710.0" type="line"/>
      <point x="316.805" y="710.0" type="line"/>
      <point x="316.805" y="677.2" type="line"/>
      <point x="321.71000000000004" y="677.2" type="line" smooth="yes"/>
      <point x="338.45" y="677.2"/>
      <point x="351.7375" y="675.2"/>
      <point x="351.7375" y="661.2" type="curve" smooth="yes"/>
      <point x="351.7375" y="444.8" type="line" smooth="yes"/>
      <point x="351.7375" y="431.8"/>
      <point x="338.45" y="427.8"/>
      <point x="321.71000000000004" y="427.8" type="curve"/>
      <point x="316.805" y="427.8" type="line"/>
    </contour>
    <contour>
      <point x="184.4075" y="424.2" type="curve" smooth="yes"/>
      <point x="143.4325" y="424.2"/>
      <point x="113.2977972879975" y="457.0"/>
      <point x="101.3125" y="497.6" type="curve"/>
      <point x="63.625" y="497.6" type="line"/>
      <point x="63.625" y="391.0" type="line"/>
      <point x="95.9325" y="391.0" type="line"/>
      <point x="101.5275" y="473.0" type="line"/>
      <point x="95.97999999999999" y="477.6"/>
      <point x="86.7425" y="463.2"/>
      <point x="81.5775" y="479.0" type="curve"/>
      <point x="96.77" y="414.6"/>
      <point x="136.0325" y="386.0"/>
      <point x="187.62" y="386.0" type="curve" smooth="yes"/>
      <point x="239.9725" y="386.0"/>
      <point x="281.28000000000003" y="419.0"/>
      <point x="281.28000000000003" y="486.0" type="curve" smooth="yes"/>
      <point x="281.28000000000003" y="539.2"/>
      <point x="250.3400751719425" y="565.6"/>
      <point x="191.5475" y="583.4" type="curve" smooth="yes"/>
      <point x="155.35732635335" y="595.6"/>
      <point x="121.09" y="604.2"/>
      <point x="121.09" y="641.0" type="curve" smooth="yes"/>
      <point x="121.09" y="666.846511628"/>
      <point x="137.0675" y="683.2"/>
      <point x="164.7125" y="683.2" type="curve" smooth="yes"/>
      <point x="195.33" y="683.2"/>
      <point x="217.958999733705" y="660.0"/>
      <point x="229.45" y="625.4" type="curve"/>
      <point x="264.995" y="625.4" type="line"/>
      <point x="264.995" y="716.0" type="line"/>
      <point x="234.6875" y="716.0" type="line"/>
      <point x="228.4025" y="645.0" type="line"/>
      <point x="236.04500000000002" y="638.0"/>
      <point x="240.8275" y="643.6"/>
      <point x="247.1375" y="644.6" type="curve"/>
      <point x="229.875" y="702.2"/>
      <point x="197.21" y="720.0"/>
      <point x="159.2375" y="720.0" type="curve" smooth="yes"/>
      <point x="111.0525" y="720.0"/>
      <point x="73.4825" y="688.2"/>
      <point x="73.4825" y="634.2" type="curve" smooth="yes"/>
      <point x="73.4825" y="569.2"/>
      <point x="118.8269339808225" y="549.4"/>
      <point x="164.48" y="534.6" type="curve" smooth="yes"/>
      <point x="213.7385570486075" y="518.2"/>
      <point x="232.125" y="505.0"/>
      <point x="232.125" y="472.4" type="curve" smooth="yes"/>
      <point x="232.125" y="440.6"/>
      <point x="215.9575" y="424.2"/>
    </contour>
  </outline>
</glyph>
<glyph name="approxequal" format="2">
  <advance width="462.0"/>
  <unicode hex="2248"/>
  <outline>
    <contour>
      <point x="292.95" y="317.4" type="curve" smooth="yes"/>
      <point x="362.1625" y="317.4"/>
      <point x="397.2325" y="380.4"/>
      <point x="413.945" y="449.6" type="curve"/>
      <point x="361.0975" y="465.6" type="line"/>
      <point x="348.62" y="430.6"/>
      <point x="339.43" y="382.2"/>
      <point x="303.2625" y="382.2" type="curve" smooth="yes"/>
      <point x="256.4275" y="382.2"/>
      <point x="227.38" y="458.0"/>
      <point x="160.81" y="458.0" type="curve" smooth="yes"/>
      <point x="93.5525" y="458.0"/>
      <point x="61.315" y="399.8"/>
      <point x="49.0075" y="326.4" type="curve"/>
      <point x="102.44999999999999" y="310.6" type="line"/>
      <point x="108.85499999999999" y="350.4"/>
      <point x="117.8075" y="394.0"/>
      <point x="152.83249999999998" y="394.0" type="curve" smooth="yes"/>
      <point x="194.4525" y="394.0"/>
      <point x="232.12" y="317.4"/>
    </contour>
    <contour>
      <point x="292.95" y="111.2" type="curve" smooth="yes"/>
      <point x="362.1625" y="111.2"/>
      <point x="397.2325" y="174.2"/>
      <point x="413.945" y="243.4" type="curve"/>
      <point x="361.0975" y="260.2" type="line"/>
      <point x="351.7875" y="224.4"/>
      <point x="339.43" y="176.0"/>
      <point x="303.2625" y="176.0" type="curve" smooth="yes"/>
      <point x="256.4275" y="176.0"/>
      <point x="227.38" y="251.8"/>
      <point x="160.81" y="251.8" type="curve" smooth="yes"/>
      <point x="93.5525" y="251.8"/>
      <point x="61.315" y="193.6"/>
      <point x="49.0075" y="120.2" type="curve"/>
      <point x="102.44999999999999" y="105.2" type="line"/>
      <point x="108.85499999999999" y="144.2"/>
      <point x="117.8075" y="187.8"/>
      <point x="152.83249999999998" y="187.8" type="curve" smooth="yes"/>
      <point x="194.4525" y="187.8"/>
      <point x="232.12" y="111.2"/>
    </contour>
  </outline>
</glyph>
<glyph name="Omega" format="2">
  <advance width="678.565"/>
  <unicode hex="A7B6"/>
  <outline>
    <contour>
      <point x="339.2825" y="720.0" type="curve" smooth="yes"/>
      <point x="499.33353658541" y="720.0"/>
      <point x="605.155" y="591.4"/>
      <point x="605.155" y="431.8" type="curve" smooth="yes"/>
      <point x="605.155" y="277.2"/>
      <point x="493.355" y="161.2"/>
      <point x="413.04999999999995" y="38.8" type="curve"/>
      <point x="415.855" y="63.6" type="line"/>
      <point x="494.665" y="63.6" type="line" smooth="yes"/>
      <point x="554.45" y="63.6"/>
      <point x="578.925" y="70.6"/>
      <point x="582.71" y="106.6" type="curve" smooth="yes"/>
      <point x="589.7574999999999" y="189.6" type="line"/>
      <point x="639.5125" y="189.6" type="line"/>
      <point x="639.5125" y="0.0" type="line"/>
      <point x="386.8125" y="0.0" type="line"/>
      <point x="386.8125" y="74.2" type="line"/>
      <point x="445.34" y="187.6"/>
      <point x="516.685" y="274.8"/>
      <point x="516.685" y="431.8" type="curve" smooth="yes"/>
      <point x="516.685" y="576.2"/>
      <point x="450.1262234044575" y="666.0"/>
      <point x="339.2825" y="666.0" type="curve" smooth="yes"/>
      <point x="228.8912765955425" y="666.0"/>
      <point x="162.33249999999998" y="576.2"/>
      <point x="162.33249999999998" y="431.8" type="curve" smooth="yes"/>
      <point x="162.33249999999998" y="274.8"/>
      <point x="233.6775" y="187.6"/>
      <point x="292.6575" y="74.2" type="curve"/>
      <point x="292.6575" y="0.0" type="line"/>
      <point x="39.0525" y="0.0" type="line"/>
      <point x="39.0525" y="189.6" type="line"/>
      <point x="89.25999999999999" y="189.6" type="line"/>
      <point x="96.3075" y="106.6" type="line" smooth="yes"/>
      <point x="100.0925" y="70.6"/>
      <point x="124.5675" y="63.6"/>
      <point x="184.3525" y="63.6" type="curve" smooth="yes"/>
      <point x="263.1625" y="63.6" type="line"/>
      <point x="265.92" y="38.8" type="line"/>
      <point x="185.66250000000002" y="161.2"/>
      <point x="73.8625" y="277.2"/>
      <point x="73.8625" y="431.8" type="curve" smooth="yes"/>
      <point x="73.8625" y="591.4"/>
      <point x="179.68396341459" y="720.0"/>
    </contour>
  </outline>
</glyph>
<glyph name="baht.proportional" format="2">
  <advance width="547.005"/>
  <outline>
    <contour>
      <point x="260.4725" y="790.0" type="line"/>
      <point x="260.4725" y="680.6" type="line"/>
      <point x="265.01750000000004" y="666.2" type="line"/>
      <point x="265.01750000000004" y="41.0" type="line"/>
      <point x="260.4725" y="31.0" type="line"/>
      <point x="260.4725" y="-120.0" type="line"/>
      <point x="313.915" y="-120.0" type="line"/>
      <point x="313.915" y="32.6" type="line"/>
      <point x="309.3225" y="44.2" type="line"/>
      <point x="309.3225" y="667.8" type="line"/>
      <point x="313.915" y="678.2" type="line"/>
      <point x="313.915" y="790.0" type="line"/>
    </contour>
    <contour>
      <point x="292.3375" y="702.0" type="curve"/>
      <point x="17.6875" y="702.0" type="line"/>
      <point x="17.6875" y="658.4" type="line"/>
      <point x="26.5925" y="658.4" type="line" smooth="yes"/>
      <point x="64.335" y="658.4"/>
      <point x="91.9575" y="651.4"/>
      <point x="91.9575" y="622.4" type="curve" smooth="yes"/>
      <point x="91.9575" y="87.6" type="line" smooth="yes"/>
      <point x="91.9575" y="58.6"/>
      <point x="64.335" y="51.6"/>
      <point x="26.5925" y="51.6" type="curve" smooth="yes"/>
      <point x="17.6875" y="51.6" type="line"/>
      <point x="17.6875" y="8.0" type="line"/>
      <point x="299.5075" y="8.0" type="line" smooth="yes"/>
      <point x="447.34000000000003" y="8.0"/>
      <point x="525.8875" y="84.2"/>
      <point x="525.8875" y="207.0" type="curve" smooth="yes"/>
      <point x="525.8875" y="316.1777777776"/>
      <point x="446.67499999999995" y="385.6"/>
      <point x="301.14" y="385.6" type="curve"/>
      <point x="294.9225" y="363.0" type="line"/>
      <point x="430.4575" y="363.0"/>
      <point x="501.57499999999993" y="430.9976744188"/>
      <point x="501.57499999999993" y="532.4" type="curve" smooth="yes"/>
      <point x="501.57499999999993" y="637.0"/>
      <point x="430.575" y="702.0"/>
    </contour>
    <contour>
      <point x="305.9225" y="395.6" type="curve"/>
      <point x="173.5775" y="395.6" type="line"/>
      <point x="173.5775" y="652.8" type="line"/>
      <point x="292.46500000000003" y="652.8" type="line"/>
      <point x="383.12" y="652.8"/>
      <point x="418.0025" y="610.0"/>
      <point x="418.0025" y="528.2" type="curve" smooth="yes"/>
      <point x="418.0025" y="455.4757575756"/>
      <point x="391.74" y="395.6"/>
    </contour>
    <contour>
      <point x="311.045" y="348.4" type="line"/>
      <point x="407.28999999999996" y="348.4"/>
      <point x="440.9575" y="287.6840579712"/>
      <point x="440.9575" y="208.8" type="curve" smooth="yes"/>
      <point x="440.9575" y="111.2"/>
      <point x="399.52750000000003" y="56.400000000000006"/>
      <point x="298.445" y="56.400000000000006" type="curve" smooth="yes"/>
      <point x="173.5775" y="56.400000000000006" type="line"/>
      <point x="173.5775" y="348.4" type="line"/>
    </contour>
  </outline>
</glyph>
<glyph name="circumflex_hook.uc" format="2">
  <advance width="420.9525"/>
  <anchor x="202.0" y="694.0" name="_top"/>
  <outline>
    <contour>
      <point x="272.7525" y="940.6" type="line"/>
      <point x="275.34749999999997" y="980.8"/>
      <point x="305.7525" y="1014.6"/>
      <point x="362.77" y="1014.6" type="curve" smooth="yes"/>
      <point x="418.885" y="1014.6"/>
      <point x="452.8125" y="988.2"/>
      <point x="452.8125" y="943.4" type="curve" smooth="yes"/>
      <point x="452.8125" y="891.2"/>
      <point x="405.9775" y="869.2"/>
      <point x="352.21750000000003" y="865.8" type="curve"/>
      <point x="382.1" y="891.0" type="line"/>
      <point x="382.1" y="837.4" type="line"/>
      <point x="330.845" y="837.4" type="line"/>
      <point x="330.845" y="897.0" type="line"/>
      <point x="369.6775" y="899.2"/>
      <point x="387.0825" y="914.4"/>
      <point x="387.0825" y="941.8" type="curve" smooth="yes"/>
      <point x="387.0825" y="963.0"/>
      <point x="377.51" y="975.4"/>
      <point x="361.15250000000003" y="975.4" type="curve" smooth="yes"/>
      <point x="343.6275" y="975.4"/>
      <point x="334.67499999999995" y="960.6"/>
      <point x="332.175" y="940.6" type="curve"/>
    </contour>
    <component base="circumflex.uc" xOffset="-55.974999999999994"/>
  </outline>
</glyph>
<glyph name="currency.proportional" format="2">
  <advance width="498.28999999999996"/>
  <outline>
    <contour>
      <point x="349.49" y="373.6" type="curve" smooth="yes"/>
      <point x="349.49" y="288.8"/>
      <point x="309.89" y="233.2"/>
      <point x="249.14499999999998" y="233.2" type="curve" smooth="yes"/>
      <point x="188.305" y="233.2"/>
      <point x="148.8" y="289.8"/>
      <point x="148.8" y="373.6" type="curve" smooth="yes"/>
      <point x="148.8" y="458.4"/>
      <point x="188.305" y="515.0"/>
      <point x="249.14499999999998" y="515.0" type="curve" smooth="yes"/>
      <point x="309.89" y="515.0"/>
      <point x="349.49" y="458.4"/>
    </contour>
    <contour>
      <point x="76.91" y="373.6" type="curve" smooth="yes"/>
      <point x="76.91" y="255.4"/>
      <point x="154.195" y="170.2"/>
      <point x="249.14499999999998" y="170.2" type="curve" smooth="yes"/>
      <point x="344.1425" y="170.2"/>
      <point x="421.38" y="255.4"/>
      <point x="421.38" y="373.6" type="curve" smooth="yes"/>
      <point x="421.38" y="492.8"/>
      <point x="344.1425" y="578.0"/>
      <point x="249.14499999999998" y="578.0" type="curve" smooth="yes"/>
      <point x="154.195" y="578.0"/>
      <point x="76.91" y="492.8"/>
    </contour>
    <contour>
      <point x="35.052499999999995" y="586.4" type="line"/>
      <point x="120.57499999999999" y="483.4" type="line"/>
      <point x="172.185" y="522.6" type="line"/>
      <point x="80.6625" y="632.6" type="line"/>
    </contour>
    <contour>
      <point x="463.2375" y="586.4" type="line"/>
      <point x="417.6275" y="632.6" type="line"/>
      <point x="326.105" y="522.6" type="line"/>
      <point x="377.6675" y="483.4" type="line"/>
    </contour>
    <contour>
      <point x="35.052499999999995" y="160.8" type="line"/>
      <point x="80.6625" y="114.6" type="line"/>
      <point x="172.185" y="224.6" type="line"/>
      <point x="120.57499999999999" y="263.8" type="line"/>
    </contour>
    <contour>
      <point x="463.2375" y="160.8" type="line"/>
      <point x="377.6675" y="263.8" type="line"/>
      <point x="326.105" y="224.6" type="line"/>
      <point x="417.6275" y="114.6" type="line"/>
    </contour>
  </outline>
</glyph>
<glyph name="f_f_i.alt" format="2">
  <advance width="831.8675000000001"/>
  <outline>
    <contour>
      <point x="28.5075" y="508.0" type="line"/>
      <point x="28.5075" y="457.0" type="line"/>
      <point x="329.3725" y="457.0" type="line"/>
      <point x="329.3725" y="508.0" type="line"/>
    </contour>
    <contour>
      <point x="307.8375" y="508.0" type="line"/>
      <point x="307.8375" y="457.0" type="line"/>
      <point x="668.6025" y="457.0" type="line"/>
      <point x="668.6025" y="508.0" type="line"/>
    </contour>
    <contour>
      <point x="605.235" y="0.0" type="line"/>
      <point x="821.415" y="0.0" type="line"/>
      <point x="821.415" y="41.4" type="line"/>
      <point x="820.415" y="41.4" type="line" smooth="yes"/>
      <point x="783.2425000000001" y="41.4"/>
      <point x="755.8575" y="48.4"/>
      <point x="755.8575" y="77.4" type="curve" smooth="yes"/>
      <point x="755.8575" y="508.0" type="line"/>
      <point x="604.0925" y="508.0" type="line"/>
      <point x="604.0925" y="457.0" type="line"/>
      <point x="612.8075" y="457.0" type="line" smooth="yes"/>
      <point x="653.3375" y="457.0"/>
      <point x="670.1025" y="441.4"/>
      <point x="670.1025" y="412.4" type="curve"/>
      <point x="670.1025" y="51.4" type="line"/>
      <point x="670.1025" y="44.4"/>
      <point x="635.2875" y="41.4"/>
      <point x="613.7125" y="41.4" type="curve" smooth="yes"/>
      <point x="605.235" y="41.4" type="line"/>
    </contour>
    <contour>
      <point x="476.4325" y="51.4" type="curve" smooth="yes"/>
      <point x="476.4325" y="571.8" type="line" smooth="yes"/>
      <point x="476.4325" y="664.6"/>
      <point x="506.555" y="701.2"/>
      <point x="587.7525" y="701.2" type="curve" smooth="yes"/>
      <point x="643.615" y="701.2"/>
      <point x="677.8575000000001" y="681.6"/>
      <point x="699.0525" y="653.4" type="curve"/>
      <point x="712.05" y="673.4"/>
      <point x="690.3075" y="710.4"/>
      <point x="663.7625" y="714.0" type="curve"/>
      <point x="663.7625" y="619.0" type="line"/>
      <point x="741.86" y="619.0" type="line"/>
      <point x="741.86" y="711.8" type="line"/>
      <point x="726.27" y="724.6"/>
      <point x="672.18" y="752.0"/>
      <point x="586.755" y="752.0" type="curve" smooth="yes"/>
      <point x="466.0" y="752.0"/>
      <point x="390.7725" y="691.0"/>
      <point x="390.7725" y="571.8" type="curve" smooth="yes"/>
      <point x="390.7725" y="51.4" type="line"/>
      <point x="390.7725" y="44.4"/>
      <point x="364.1025" y="41.4"/>
      <point x="324.4275" y="41.4" type="curve" smooth="yes"/>
      <point x="314.5925" y="41.4" type="line"/>
      <point x="314.5925" y="0.0" type="line"/>
      <point x="552.635" y="0.0" type="line"/>
      <point x="552.635" y="41.4" type="line"/>
      <point x="542.4425" y="41.4" type="line" smooth="yes"/>
      <point x="504.985" y="41.4"/>
      <point x="476.4325" y="44.4"/>
    </contour>
    <contour>
      <point x="197.1025" y="51.4" type="curve" smooth="yes"/>
      <point x="197.1025" y="551.8" type="line" smooth="yes"/>
      <point x="197.1025" y="644.6"/>
      <point x="225.345" y="681.2"/>
      <point x="309.45" y="681.2" type="curve" smooth="yes"/>
      <point x="368.78999999999996" y="681.2"/>
      <point x="404.5575" y="660.0"/>
      <point x="426.6575" y="613.0" type="curve"/>
      <point x="437.065" y="651.8"/>
      <point x="417.6275" y="688.8"/>
      <point x="390.7725" y="674.4" type="curve"/>
      <point x="390.7725" y="549.0" type="line"/>
      <point x="463.17" y="599.0" type="line"/>
      <point x="464.7375" y="673.8" type="line"/>
      <point x="446.405" y="699.8"/>
      <point x="396.36" y="732.0"/>
      <point x="307.645" y="732.0" type="curve" smooth="yes"/>
      <point x="185.22" y="732.0"/>
      <point x="111.4425" y="671.0"/>
      <point x="111.4425" y="551.8" type="curve" smooth="yes"/>
      <point x="111.4425" y="77.4" type="line"/>
      <point x="111.4425" y="48.4"/>
      <point x="85.82" y="41.4"/>
      <point x="42.457499999999996" y="41.4" type="curve" smooth="yes"/>
      <point x="33.362500000000004" y="41.4" type="line"/>
      <point x="33.362500000000004" y="0.0" type="line"/>
      <point x="261.9925" y="0.0" type="line"/>
      <point x="261.9925" y="41.4" type="line"/>
      <point x="259.4925" y="41.4" type="line" smooth="yes"/>
      <point x="223.39249999999998" y="41.4"/>
      <point x="197.1025" y="44.4"/>
    </contour>
  </outline>
</glyph>
<glyph name="f_f_j" format="2">
  <advance width="829.0125"/>
  <outline>
    <contour>
      <point x="28.5075" y="508.0" type="line"/>
      <point x="28.5075" y="457.0" type="line"/>
      <point x="313.8975" y="457.0" type="line"/>
      <point x="313.8975" y="508.0" type="line"/>
    </contour>
    <contour>
      <point x="709.3725000000001" y="626.6" type="curve" smooth="yes"/>
      <point x="741.745" y="626.6"/>
      <point x="764.8125" y="647.8"/>
      <point x="764.8125" y="683.4" type="curve" smooth="yes"/>
      <point x="764.8125" y="718.2"/>
      <point x="741.745" y="739.4"/>
      <point x="709.3725000000001" y="739.4" type="curve" smooth="yes"/>
      <point x="677.405" y="739.4"/>
      <point x="654.4325" y="718.2"/>
      <point x="654.4325" y="683.4" type="curve" smooth="yes"/>
      <point x="654.4325" y="647.8"/>
      <point x="677.405" y="626.6"/>
    </contour>
    <contour>
      <point x="307.8375" y="508.0" type="line"/>
      <point x="307.8375" y="457.0" type="line"/>
      <point x="649.145" y="457.0" type="line"/>
      <point x="649.145" y="508.0" type="line"/>
    </contour>
    <contour>
      <point x="670.1025" y="-51.0" type="line" smooth="yes"/>
      <point x="670.1025" y="-149.6"/>
      <point x="638.6225" y="-180.0"/>
      <point x="589.905" y="-180.0" type="curve" smooth="yes"/>
      <point x="565.8575000000001" y="-180.0"/>
      <point x="545.8575" y="-174.2"/>
      <point x="527.095" y="-167.6" type="curve"/>
      <point x="527.095" y="-224.8" type="line"/>
      <point x="541.8575" y="-231.4"/>
      <point x="569.6875" y="-236.0"/>
      <point x="596.015" y="-236.0" type="curve" smooth="yes"/>
      <point x="680.26" y="-236.0"/>
      <point x="755.7625" y="-196.0"/>
      <point x="755.7625" y="-51.0" type="curve" smooth="yes"/>
      <point x="755.7625" y="508.0" type="line"/>
      <point x="603.3325" y="508.0" type="line"/>
      <point x="603.3325" y="457.0" type="line"/>
      <point x="612.8075" y="457.0" type="line" smooth="yes"/>
      <point x="653.3375" y="457.0"/>
      <point x="670.1025" y="441.4"/>
      <point x="670.1025" y="412.4" type="curve" smooth="yes"/>
    </contour>
    <contour>
      <point x="197.1025" y="51.4" type="curve"/>
      <point x="197.1025" y="561.0" type="line" smooth="yes"/>
      <point x="197.1025" y="662.4"/>
      <point x="228.2975" y="687.6"/>
      <point x="270.85" y="687.6" type="curve" smooth="yes"/>
      <point x="293.71" y="687.6"/>
      <point x="314.5925" y="678.6"/>
      <point x="329.6675" y="670.6" type="curve"/>
      <point x="329.6675" y="727.8" type="line"/>
      <point x="316.0" y="733.8"/>
      <point x="290.5725" y="737.8"/>
      <point x="267.28999999999996" y="737.8" type="curve" smooth="yes"/>
      <point x="188.63" y="737.8"/>
      <point x="111.4425" y="694.8"/>
      <point x="111.4425" y="561.0" type="curve" smooth="yes"/>
      <point x="111.4425" y="77.4" type="line" smooth="yes"/>
      <point x="111.4425" y="48.4"/>
      <point x="85.82" y="41.4"/>
      <point x="42.457499999999996" y="41.4" type="curve" smooth="yes"/>
      <point x="33.362500000000004" y="41.4" type="line"/>
      <point x="33.362500000000004" y="0.0" type="line"/>
      <point x="261.9925" y="0.0" type="line"/>
      <point x="261.9925" y="41.4" type="line"/>
      <point x="259.4925" y="41.4" type="line" smooth="yes"/>
      <point x="223.39249999999998" y="41.4"/>
      <point x="197.1025" y="44.4"/>
    </contour>
    <contour>
      <point x="390.7725" y="51.4" type="line"/>
      <point x="390.7725" y="44.4"/>
      <point x="365.9125" y="41.4"/>
      <point x="323.07" y="41.4" type="curve" smooth="yes"/>
      <point x="314.5925" y="41.4" type="line"/>
      <point x="314.5925" y="0.0" type="line"/>
      <point x="552.3975" y="0.0" type="line"/>
      <point x="552.3975" y="41.4" type="line"/>
      <point x="541.9675" y="41.4" type="line" smooth="yes"/>
      <point x="505.2225" y="41.4"/>
      <point x="476.4325" y="44.4"/>
      <point x="476.4325" y="51.4" type="curve" smooth="yes"/>
      <point x="476.4325" y="575.2" type="line" smooth="yes"/>
      <point x="476.4325" y="676.6"/>
      <point x="503.865" y="701.8"/>
      <point x="543.2025" y="701.8" type="curve" smooth="yes"/>
      <point x="563.705" y="701.8"/>
      <point x="584.5875" y="694.4"/>
      <point x="598.3050000000001" y="686.4" type="curve"/>
      <point x="598.3050000000001" y="742.0" type="line"/>
      <point x="585.9475" y="748.0"/>
      <point x="561.5675" y="752.0"/>
      <point x="539.6424999999999" y="752.0" type="curve" smooth="yes"/>
      <point x="464.1975" y="752.0"/>
      <point x="390.7725" y="709.0"/>
      <point x="390.7725" y="575.2" type="curve"/>
    </contour>
  </outline>
</glyph>
<glyph name="f_k" format="2">
  <advance width="825.3825"/>
  <outline>
    <contour>
      <point x="807.69" y="0.0" type="line"/>
      <point x="807.69" y="42.0" type="line"/>
      <point x="805.7375" y="42.0" type="line"/>
      <point x="776.0925" y="42.0"/>
      <point x="751.21" y="48.2"/>
      <point x="728.3975" y="80.0" type="curve" smooth="yes"/>
      <point x="565.7" y="304.6" type="line"/>
      <point x="559.425" y="266.6" type="line"/>
      <point x="687.0925" y="417.0" type="line" smooth="yes"/>
      <point x="715.595" y="450.8"/>
      <point x="746.3825" y="466.0"/>
      <point x="780.1925" y="466.0" type="curve"/>
      <point x="781.6925" y="466.0" type="line"/>
      <point x="781.6925" y="508.0" type="line"/>
      <point x="575.72" y="508.0" type="line"/>
      <point x="575.72" y="466.0" type="line"/>
      <point x="578.72" y="466.0" type="line"/>
      <point x="603.15" y="466.0"/>
      <point x="644.6275" y="463.0"/>
      <point x="644.6275" y="448.0" type="curve"/>
      <point x="497.505" y="274.6" type="line"/>
      <point x="497.505" y="269.6" type="line"/>
      <point x="645.145" y="52.0" type="line"/>
      <point x="645.145" y="45.0"/>
      <point x="610.7825" y="42.0"/>
      <point x="589.16" y="42.0" type="curve"/>
      <point x="586.66" y="42.0" type="line"/>
      <point x="586.66" y="0.0" type="line"/>
    </contour>
    <contour>
      <point x="28.5075" y="508.0" type="line"/>
      <point x="28.5075" y="457.0" type="line"/>
      <point x="307.0925" y="457.0" type="line"/>
      <point x="307.0925" y="508.0" type="line"/>
    </contour>
    <contour>
      <point x="534.965" y="0.0" type="line"/>
      <point x="534.965" y="41.4" type="line"/>
      <point x="532.465" y="41.4" type="line" smooth="yes"/>
      <point x="511.3425" y="41.4"/>
      <point x="476.48" y="44.4"/>
      <point x="476.48" y="51.4" type="curve"/>
      <point x="476.48" y="735.0" type="line"/>
      <point x="347.3875" y="735.0" type="line"/>
      <point x="390.7725" y="699.8" type="line"/>
      <point x="390.7725" y="51.4" type="line"/>
      <point x="390.7725" y="44.4"/>
      <point x="355.9575" y="41.4"/>
      <point x="334.3825" y="41.4" type="curve" smooth="yes"/>
      <point x="325.905" y="41.4" type="line"/>
      <point x="325.905" y="0.0" type="line"/>
    </contour>
    <contour>
      <point x="197.1025" y="51.4" type="curve" smooth="yes"/>
      <point x="197.1025" y="576.0" type="line" smooth="yes"/>
      <point x="197.1025" y="677.4"/>
      <point x="234.46500000000003" y="701.2"/>
      <point x="290.3275" y="701.2" type="curve" smooth="yes"/>
      <point x="342.2125" y="701.2"/>
      <point x="381.145" y="684.6"/>
      <point x="414.745" y="633.0" type="curve"/>
      <point x="425.225" y="701.4" type="line"/>
      <point x="393.7275" y="730.2"/>
      <point x="347.27750000000003" y="752.0"/>
      <point x="289.6425" y="752.0" type="curve" smooth="yes"/>
      <point x="198.175" y="752.0"/>
      <point x="111.4425" y="709.8"/>
      <point x="111.4425" y="576.0" type="curve" smooth="yes"/>
      <point x="111.4425" y="77.4" type="line"/>
      <point x="111.4425" y="48.4"/>
      <point x="85.82" y="41.4"/>
      <point x="42.457499999999996" y="41.4" type="curve" smooth="yes"/>
      <point x="33.362500000000004" y="41.4" type="line"/>
      <point x="33.362500000000004" y="0.0" type="line"/>
      <point x="273.305" y="0.0" type="line"/>
      <point x="273.305" y="41.4" type="line"/>
      <point x="263.1125" y="41.4" type="line" smooth="yes"/>
      <point x="225.655" y="41.4"/>
      <point x="197.1025" y="44.4"/>
    </contour>
  </outline>
</glyph>
<glyph name="guarani.proportional" format="2">
  <advance width="646.4475"/>
  <outline>
    <contour>
      <point x="414.255" y="357.0" type="line"/>
      <point x="414.255" y="313.4" type="line"/>
      <point x="418.78000000000003" y="313.4" type="line" smooth="yes"/>
      <point x="453.2232352941975" y="313.4"/>
      <point x="478.51" y="306.4"/>
      <point x="478.51" y="277.4" type="curve"/>
      <point x="561.6075" y="277.4" type="line"/>
      <point x="561.6075" y="306.4"/>
      <point x="586.6825" y="313.4"/>
      <point x="620.33" y="313.4" type="curve" smooth="yes"/>
      <point x="623.5675" y="313.4" type="line"/>
      <point x="623.5675" y="357.0" type="line"/>
    </contour>
    <contour>
      <point x="294.07" y="790.0" type="line"/>
      <point x="294.07" y="671.0" type="line"/>
      <point x="295.0675" y="658.2" type="line"/>
      <point x="295.0675" y="44.2" type="line"/>
      <point x="294.07" y="34.4" type="line"/>
      <point x="294.07" y="-120.0" type="line"/>
      <point x="346.705" y="-120.0" type="line"/>
      <point x="346.705" y="30.8" type="line"/>
      <point x="345.65999999999997" y="39.4" type="line"/>
      <point x="345.65999999999997" y="671.8" type="line"/>
      <point x="346.705" y="676.8" type="line"/>
      <point x="346.705" y="790.0" type="line"/>
    </contour>
    <contour>
      <point x="338.2125" y="10.0" type="curve" smooth="yes"/>
      <point x="435.77750000000003" y="10.0"/>
      <point x="527.465" y="74.4"/>
      <point x="561.6075" y="130.0" type="curve"/>
      <point x="561.6075" y="323.4" type="line"/>
      <point x="478.51" y="331.4" type="line"/>
      <point x="478.51" y="136.0" type="line"/>
      <point x="460.5575" y="113.4"/>
      <point x="411.3625" y="62.400000000000006"/>
      <point x="339.805" y="62.400000000000006" type="curve" smooth="yes"/>
      <point x="210.983607843155" y="62.400000000000006"/>
      <point x="135.35750000000002" y="173.4"/>
      <point x="135.35750000000002" y="355.0" type="curve" smooth="yes"/>
      <point x="135.35750000000002" y="532.0"/>
      <point x="209.4148046875" y="647.6"/>
      <point x="342.3725" y="647.6" type="curve" smooth="yes"/>
      <point x="417.6875" y="647.6"/>
      <point x="478.55" y="608.6"/>
      <point x="506.815" y="549.2" type="curve"/>
      <point x="516.66" y="571.8"/>
      <point x="489.0" y="603.8"/>
      <point x="465.3375" y="612.6" type="curve"/>
      <point x="465.3375" y="509.2" type="line"/>
      <point x="552.0825" y="509.2" type="line"/>
      <point x="552.0825" y="600.8" type="line"/>
      <point x="521.7225" y="655.8"/>
      <point x="437.865" y="700.0"/>
      <point x="341.4225" y="700.0" type="curve" smooth="yes"/>
      <point x="165.2875" y="700.0"/>
      <point x="43.695" y="557.6"/>
      <point x="43.695" y="355.0" type="curve" smooth="yes"/>
      <point x="43.695" y="149.0"/>
      <point x="160.83499999999998" y="10.0"/>
    </contour>
  </outline>
</glyph>
<glyph name="parenleft.uc" format="2">
  <advance width="291.635"/>
  <outline>
    <contour>
      <point x="122.76750000000001" y="363.0" type="curve" smooth="yes"/>
      <point x="122.76750000000001" y="160.4"/>
      <point x="202.27867391755404" y="39.0"/>
      <point x="272.3225" y="-36.0" type="curve"/>
      <point x="272.3225" y="-39.0" type="line"/>
      <point x="210.67000000000002" y="-39.0" type="line"/>
      <point x="117.8125" y="32.6"/>
      <point x="39.48" y="161.2"/>
      <point x="39.48" y="363.0" type="curve" smooth="yes"/>
      <point x="39.48" y="545.8"/>
      <point x="117.8125" y="675.0"/>
      <point x="210.67000000000002" y="749.0" type="curve"/>
      <point x="272.3225" y="749.0" type="line"/>
      <point x="272.3225" y="746.0" type="line"/>
      <point x="202.73117391755403" y="668.6"/>
      <point x="122.76750000000001" y="547.2"/>
    </contour>
  </outline>
</glyph>
<glyph name="peso.proportional" format="2">
  <advance width="552.1475"/>
  <outline>
    <contour>
      <point x="38.8825" y="0.0" type="line"/>
      <point x="285.49" y="0.0" type="line"/>
      <point x="285.49" y="43.6" type="line"/>
      <point x="263.2275" y="43.6" type="line" smooth="yes"/>
      <point x="236.51" y="43.6"/>
      <point x="202.625" y="46.6"/>
      <point x="202.625" y="53.6" type="curve" smooth="yes"/>
      <point x="202.625" y="262.2" type="line"/>
      <point x="249.41500000000002" y="262.2" type="line" smooth="yes"/>
      <point x="388.4575" y="262.2"/>
      <point x="473.3375" y="355.4"/>
      <point x="473.3375" y="489.6" type="curve" smooth="yes"/>
      <point x="473.3375" y="623.8"/>
      <point x="393.1" y="710.0"/>
      <point x="253.8675" y="710.0" type="curve" smooth="yes"/>
      <point x="38.8825" y="710.0" type="line"/>
      <point x="38.8825" y="666.4" type="line"/>
      <point x="47.7875" y="666.4" type="line" smooth="yes"/>
      <point x="86.435" y="666.4"/>
      <point x="114.9625" y="659.4"/>
      <point x="114.9625" y="630.4" type="curve" smooth="yes"/>
      <point x="114.9625" y="79.6" type="line" smooth="yes"/>
      <point x="114.9625" y="50.6"/>
      <point x="86.435" y="43.6"/>
      <point x="47.7875" y="43.6" type="curve" smooth="yes"/>
      <point x="38.8825" y="43.6" type="line"/>
    </contour>
    <contour>
      <point x="251.8225" y="658.4" type="line" smooth="yes"/>
      <point x="343.006811377045" y="658.4"/>
      <point x="388.1975" y="595.4"/>
      <point x="388.1975" y="488.6" type="curve" smooth="yes"/>
      <point x="388.1975" y="382.4"/>
      <point x="343.0371366279175" y="312.2"/>
      <point x="247.965" y="312.2" type="curve" smooth="yes"/>
      <point x="202.625" y="312.2" type="line"/>
      <point x="202.625" y="658.4" type="line"/>
    </contour>
    <contour>
      <point x="38.8825" y="510.0" type="line"/>
      <point x="38.8825" y="462.4" type="line"/>
      <point x="154.3725" y="462.4" type="line"/>
      <point x="165.51" y="462.4" type="line"/>
      <point x="426.53499999999997" y="462.4" type="line"/>
      <point x="433.66999999999996" y="462.4" type="line"/>
      <point x="538.9825" y="462.4" type="line"/>
      <point x="538.9825" y="510.0" type="line"/>
      <point x="435.5725" y="510.0" type="line"/>
      <point x="429.08" y="510.0" type="line"/>
      <point x="165.54" y="510.0" type="line"/>
      <point x="155.685" y="510.0" type="line"/>
    </contour>
  </outline>
</glyph>
<glyph name="plus.sup" format="2">
  <advance width="330.76"/>
  <outline>
    <contour>
      <point x="140.4325" y="720.4" type="line"/>
      <point x="140.4325" y="414.0" type="line"/>
      <point x="189.0175" y="414.0" type="line"/>
      <point x="189.0175" y="720.4" type="line"/>
    </contour>
    <contour>
      <point x="289.38" y="589.4" type="line"/>
      <point x="41.4275" y="589.4" type="line"/>
      <point x="41.4275" y="545.0" type="line"/>
      <point x="289.38" y="545.0" type="line"/>
    </contour>
  </outline>
</glyph>
<glyph name="rupeeIndian" format="2">
  <advance width="462.0"/>
  <outline>
    <contour>
      <point x="55.1" y="518.2" type="line"/>
      <point x="55.1" y="470.6" type="line"/>
      <point x="445.5" y="470.6" type="line"/>
      <point x="445.5" y="518.2" type="line"/>
    </contour>
    <contour>
      <point x="92.405" y="281.0" type="line"/>
      <point x="113.8075" y="281.0" type="line" smooth="yes"/>
      <point x="257.97" y="281.0"/>
      <point x="347.135" y="369.2"/>
      <point x="347.135" y="498.4" type="curve" smooth="yes"/>
      <point x="347.135" y="588.0"/>
      <point x="296.3725941448575" y="655.8"/>
      <point x="185.9325" y="676.2" type="curve"/>
      <point x="159.62" y="691.0"/>
      <point x="112.535" y="699.0"/>
      <point x="156.74" y="662.4" type="curve"/>
      <point x="445.5" y="662.4" type="line"/>
      <point x="445.5" y="710.0" type="line"/>
      <point x="55.1" y="710.0" type="line"/>
      <point x="55.1" y="657.4" type="line"/>
      <point x="117.7" y="657.4" type="line" smooth="yes"/>
      <point x="209.7475" y="657.4"/>
      <point x="255.79999999999998" y="596.6"/>
      <point x="255.79999999999998" y="498.4" type="curve" smooth="yes"/>
      <point x="255.79999999999998" y="395.8"/>
      <point x="213.9625" y="329.4"/>
      <point x="109.2475" y="329.4" type="curve" smooth="yes"/>
      <point x="55.1" y="329.4" type="line"/>
      <point x="55.1" y="290.4" type="line"/>
      <point x="288.925" y="0.0" type="line"/>
      <point x="405.135" y="0.0" type="line"/>
      <point x="405.135" y="43.6" type="line"/>
      <point x="395.135" y="43.6" type="line" smooth="yes"/>
      <point x="369.8725" y="43.6"/>
      <point x="355.7775" y="51.4"/>
      <point x="338.41999999999996" y="71.8" type="curve" smooth="yes"/>
      <point x="136.12" y="314.2" type="line"/>
    </contour>
  </outline>
</glyph>
<glyph name="slash.uc" format="2">
  <advance width="355.7"/>
  <outline>
    <contour>
      <point x="281.975" y="749.0" type="line"/>
      <point x="5.16" y="-38.2" type="line"/>
      <point x="77.43" y="-38.2" type="line"/>
      <point x="354.245" y="749.0" type="line"/>
    </contour>
  </outline>
</glyph>
<glyph name="sterling.alt" format="2">
  <advance width="462.0"/>
  <outline>
    <contour>
      <point x="26.9075" y="365.6" type="line"/>
      <point x="26.9075" y="318.0" type="line"/>
      <point x="336.635" y="318.0" type="line"/>
      <point x="336.635" y="365.6" type="line"/>
    </contour>
    <contour>
      <point x="23.1925" y="0.0" type="line"/>
      <point x="430.855" y="0.0" type="line"/>
      <point x="430.855" y="205.6" type="line"/>
      <point x="380.195" y="205.6" type="line"/>
      <point x="372.695" y="106.6" type="line" smooth="yes"/>
      <point x="369.9575" y="70.6"/>
      <point x="341.17" y="63.6"/>
      <point x="270.93" y="63.6" type="curve"/>
      <point x="59.54" y="63.6" type="line"/>
      <point x="92.09" y="54.0" type="line"/>
      <point x="164.48250000000002" y="92.6"/>
      <point x="203.6525" y="175.2"/>
      <point x="203.6525" y="251.4" type="curve" smooth="yes"/>
      <point x="203.6525" y="356.6"/>
      <point x="150.9575" y="411.8"/>
      <point x="150.9575" y="524.8" type="curve" smooth="yes"/>
      <point x="150.9575" y="612.0"/>
      <point x="197.89499999999998" y="664.0"/>
      <point x="266.2625" y="664.0" type="curve" smooth="yes"/>
      <point x="319.41499999999996" y="664.0"/>
      <point x="350.825" y="638.0"/>
      <point x="373.495" y="609.6" type="curve"/>
      <point x="375.37" y="627.6"/>
      <point x="366.25" y="649.8"/>
      <point x="343.77750000000003" y="654.4" type="curve"/>
      <point x="343.77750000000003" y="549.6" type="line"/>
      <point x="422.6425" y="549.6" type="line"/>
      <point x="422.6425" y="661.8" type="line"/>
      <point x="400.0225" y="687.2"/>
      <point x="348.40250000000003" y="718.0"/>
      <point x="264.265" y="718.0" type="curve" smooth="yes"/>
      <point x="142.055" y="718.0"/>
      <point x="63.4825" y="639.0"/>
      <point x="63.4825" y="520.8" type="curve" smooth="yes"/>
      <point x="63.4825" y="408.4"/>
      <point x="135.7675" y="341.6"/>
      <point x="135.7675" y="239.4" type="curve" smooth="yes"/>
      <point x="135.7675" y="159.8"/>
      <point x="74.0225" y="104.2"/>
      <point x="23.1925" y="65.4" type="curve"/>
    </contour>
  </outline>
</glyph>
<glyph name="zero.slash" format="2">
  <advance width="462.0"/>
  <outline>
    <contour>
      <point x="113.82750000000001" y="133.2" type="line"/>
      <point x="368.5825" y="426.4" type="line"/>
      <point x="351.3875" y="475.0" type="line"/>
      <point x="94.37" y="178.8" type="line"/>
    </contour>
    <contour>
      <point x="231.0" y="-11.0" type="curve" smooth="yes"/>
      <point x="350.0925" y="-11.0"/>
      <point x="433.4475" y="118.0"/>
      <point x="433.4475" y="304.0" type="curve" smooth="yes"/>
      <point x="433.4475" y="490.0"/>
      <point x="350.0925" y="619.0"/>
      <point x="231.0" y="619.0" type="curve" smooth="yes"/>
      <point x="111.9075" y="619.0"/>
      <point x="28.5525" y="490.0"/>
      <point x="28.5525" y="304.0" type="curve" smooth="yes"/>
      <point x="28.5525" y="118.0"/>
      <point x="111.9075" y="-11.0"/>
    </contour>
    <contour>
      <point x="231.0" y="42.2" type="curve" smooth="yes"/>
      <point x="158.6146875" y="42.2"/>
      <point x="117.05250000000001" y="145.4"/>
      <point x="117.05250000000001" y="304.0" type="curve" smooth="yes"/>
      <point x="117.05250000000001" y="462.4"/>
      <point x="158.6146875" y="566.6"/>
      <point x="231.0" y="566.6" type="curve" smooth="yes"/>
      <point x="303.3853125" y="566.6"/>
      <point x="344.9475" y="462.4"/>
      <point x="344.9475" y="304.0" type="curve" smooth="yes"/>
      <point x="344.9475" y="144.4"/>
      <point x="303.3853125" y="42.2"/>
    </contour>
  </outline>
</glyph>
